<?xml version="1.0" encoding="UTF-8"?>
<svg xmlns="http://www.w3.org/2000/svg" xmlns:xlink="http://www.w3.org/1999/xlink" width="200px" height="50px" viewBox="0 0 200 50" version="1.1">
<g id="surface1">
<path style=" stroke:none;fill-rule:nonzero;fill:rgb(0%,0%,0%);fill-opacity:1;" d="M 3.820312 10.902344 C 4.84375 10.726562 5.738281 10.308594 6.453125 9.863281 L 6.582031 7.53125 L 6.226562 7.53125 L 5.609375 9.460938 C 5.277344 9.894531 4.746094 10.355469 4.089844 10.355469 C 2.199219 10.355469 1.273438 7.902344 1.273438 5.316406 C 1.273438 2.140625 2.40625 0.503906 3.894531 0.503906 C 4.78125 0.503906 5.308594 1.011719 5.652344 1.5 L 6.148438 3.207031 L 6.515625 3.207031 L 6.515625 0.949219 C 5.945312 0.488281 5.058594 0 3.992188 0 C 1.609375 0.386719 0 2.226562 0 5.628906 C 0 9.0625 1.824219 10.902344 3.820312 10.902344 Z M 3.820312 10.902344 "/>
<path style=" stroke:none;fill-rule:nonzero;fill:rgb(0%,0%,0%);fill-opacity:1;" d="M 11.699219 9.121094 C 11.300781 9.476562 10.816406 9.757812 10.351562 9.757812 C 9.21875 9.757812 8.496094 8.617188 8.484375 6.742188 L 11.785156 6.742188 L 11.785156 6.210938 C 11.785156 4.632812 11.246094 3.476562 9.898438 3.476562 C 8.472656 3.921875 7.492188 5.15625 7.492188 7.382812 C 7.492188 9.640625 8.65625 10.875 9.960938 10.875 C 10.6875 10.503906 11.234375 10.101562 11.820312 9.460938 Z M 9.660156 4.039062 C 10.503906 4.039062 10.675781 4.945312 10.675781 6.195312 L 10.675781 6.296875 L 8.496094 6.359375 C 8.539062 4.871094 8.96875 4.039062 9.660156 4.039062 Z M 9.660156 4.039062 "/>
<path style=" stroke:none;fill-rule:nonzero;fill:rgb(0%,0%,0%);fill-opacity:1;" d="M 13.71875 10.636719 L 14.734375 10.664062 L 14.753906 10.324219 L 14.203125 10.207031 L 14.203125 5.464844 L 14.570312 5.167969 C 14.96875 4.8125 15.285156 4.515625 15.671875 4.515625 C 16.125 4.515625 16.351562 4.828125 16.351562 5.6875 L 16.351562 10.207031 L 15.832031 10.324219 L 15.855469 10.664062 L 16.914062 10.636719 L 18.164062 10.664062 L 18.1875 10.324219 L 17.398438 10.207031 L 17.398438 5.761719 C 17.398438 4.160156 17.160156 3.476562 15.984375 3.476562 L 14.203125 5.035156 L 14.171875 3.609375 L 13.882812 3.625 L 12.425781 4.144531 L 12.457031 4.484375 L 13.191406 4.324219 L 13.191406 10.207031 L 12.46875 10.324219 L 12.5 10.664062 Z M 13.71875 10.636719 "/>
<path style=" stroke:none;fill-rule:nonzero;fill:rgb(0%,0%,0%);fill-opacity:1;" d="M 21.882812 9.832031 L 21.761719 9.507812 C 21.40625 9.773438 21.167969 9.878906 20.855469 9.878906 C 20.511719 9.878906 20.242188 9.550781 20.242188 8.925781 L 20.242188 4.234375 L 21.804688 4.234375 L 21.804688 3.816406 L 20.242188 3.816406 L 20.242188 1.84375 L 20.078125 1.84375 L 19.238281 2.703125 L 19.238281 3.773438 L 18.492188 3.773438 L 18.300781 4.113281 L 18.300781 4.234375 L 19.214844 4.234375 L 19.214844 8.925781 C 19.214844 10.144531 19.5625 10.875 20.511719 10.875 Z M 21.882812 9.832031 "/>
<path style=" stroke:none;fill-rule:nonzero;fill:rgb(0%,0%,0%);fill-opacity:1;" d="M 23.691406 10.636719 L 25.210938 10.664062 L 25.234375 10.292969 L 24.1875 10.175781 L 24.1875 6.269531 L 24.296875 6.089844 C 24.433594 5.851562 24.921875 5.09375 25.050781 5.050781 L 26.074219 5.050781 L 26.074219 3.550781 L 25.296875 3.550781 L 24.144531 5.761719 L 24.113281 3.609375 L 23.832031 3.625 L 22.40625 4.144531 L 22.4375 4.484375 L 23.171875 4.324219 L 23.171875 10.207031 L 22.449219 10.324219 L 22.484375 10.664062 Z M 23.691406 10.636719 "/>
<path style=" stroke:none;fill-rule:nonzero;fill:rgb(0%,0%,0%);fill-opacity:1;" d="M 30.769531 9.121094 C 30.371094 9.476562 29.882812 9.757812 29.421875 9.757812 C 28.289062 9.757812 27.566406 8.617188 27.554688 6.742188 L 30.855469 6.742188 L 30.855469 6.210938 C 30.855469 4.632812 30.316406 3.476562 28.96875 3.476562 C 27.542969 3.921875 26.5625 5.15625 26.5625 7.382812 C 26.5625 9.640625 27.726562 10.875 29.03125 10.875 C 29.753906 10.503906 30.304688 10.101562 30.886719 9.460938 Z M 28.730469 4.039062 C 29.570312 4.039062 29.746094 4.945312 29.746094 6.195312 L 29.746094 6.296875 L 27.566406 6.359375 C 27.609375 4.871094 28.039062 4.039062 28.730469 4.039062 Z M 28.730469 4.039062 "/>
<path style=" stroke:none;fill-rule:nonzero;fill:rgb(0%,0%,0%);fill-opacity:1;" d="M 35.644531 10.636719 L 37.316406 10.664062 L 37.351562 10.292969 L 36.164062 10.207031 L 36.164062 4.25 L 37.511719 4.25 L 37.511719 3.804688 L 36.164062 3.804688 L 36.164062 3.269531 C 36.164062 2.273438 36.195312 1.886719 36.316406 1.542969 L 36.433594 1.261719 L 37.933594 1.261719 L 37.933594 0.105469 L 36.671875 0.105469 L 35.667969 1.574219 C 35.277344 2.140625 35.140625 2.6875 35.140625 3.609375 L 35.140625 3.773438 L 34.480469 3.773438 L 34.320312 4.101562 L 34.320312 4.25 L 35.140625 4.25 L 35.140625 10.207031 L 34.414062 10.324219 L 34.449219 10.664062 Z M 35.644531 10.636719 "/>
<path style=" stroke:none;fill-rule:nonzero;fill:rgb(0%,0%,0%);fill-opacity:1;" d="M 40.164062 10.875 C 41.78125 10.457031 42.816406 9.269531 42.816406 7.011719 C 42.816406 4.976562 41.84375 3.476562 40.453125 3.476562 C 38.847656 3.921875 37.820312 5.066406 37.820312 7.339844 C 37.820312 9.375 38.78125 10.875 40.164062 10.875 Z M 40.453125 10.339844 C 39.535156 10.339844 38.910156 8.882812 38.910156 6.953125 C 38.910156 5.183594 39.34375 4.011719 40.171875 4.011719 C 41.058594 4.011719 41.714844 5.304688 41.714844 7.414062 C 41.714844 9.152344 41.273438 10.339844 40.453125 10.339844 Z M 40.453125 10.339844 "/>
<path style=" stroke:none;fill-rule:nonzero;fill:rgb(0%,0%,0%);fill-opacity:1;" d="M 44.703125 10.636719 L 46.222656 10.664062 L 46.246094 10.292969 L 45.199219 10.175781 L 45.199219 6.269531 L 45.304688 6.089844 C 45.445312 5.851562 45.929688 5.09375 46.0625 5.050781 L 47.085938 5.050781 L 47.085938 3.550781 L 46.308594 3.550781 L 45.15625 5.761719 L 45.121094 3.609375 L 44.839844 3.625 L 43.417969 4.144531 L 43.449219 4.484375 L 44.183594 4.324219 L 44.183594 10.207031 L 43.460938 10.324219 L 43.492188 10.664062 Z M 44.703125 10.636719 "/>
<path style=" stroke:none;fill-rule:nonzero;fill:rgb(0%,0%,0%);fill-opacity:1;" d="M 3.140625 38.042969 L 7.324219 38.105469 C 12.332031 37.570312 14.703125 33.292969 14.703125 27.171875 C 14.703125 20.84375 11.941406 17.25 7.410156 17.25 L 3.183594 17.308594 L 0.25 17.25 L 0.183594 18.050781 L 1.953125 18.347656 L 1.953125 37.003906 L 0.183594 37.300781 L 0.25 38.105469 Z M 4.691406 36.945312 L 4.691406 18.316406 L 6.679688 18.140625 C 10.128906 18.109375 11.75 22.0625 11.75 27.4375 C 11.75 33.171875 9.914062 37.242188 7.066406 37.183594 Z M 4.691406 36.945312 "/>
<path style=" stroke:none;fill-rule:nonzero;fill:rgb(0%,0%,0%);fill-opacity:1;" d="M 22.21875 35.875 L 22.800781 38.3125 L 26.148438 37.390625 L 26.0625 36.617188 L 24.980469 36.707031 C 24.789062 36.023438 24.660156 35.339844 24.660156 34.273438 L 24.660156 28.121094 C 24.660156 24.734375 23.753906 23.605469 20.902344 23.605469 L 16.695312 26.070312 L 16.695312 28.417969 L 18.941406 28.417969 L 19.351562 25.449219 C 19.847656 25.179688 20.234375 25.0625 20.6875 25.0625 C 21.984375 25.0625 22.132812 26.042969 22.132812 27.765625 L 22.132812 29.667969 L 17.386719 31.777344 C 16.652344 32.667969 16.351562 33.675781 16.351562 34.777344 C 16.351562 37.152344 17.667969 38.519531 19.480469 38.519531 Z M 20.171875 36.410156 C 19.480469 36.410156 18.898438 35.636719 18.898438 34.152344 C 18.898438 33.203125 19.15625 32.398438 19.609375 31.867188 L 22.132812 30.46875 L 22.132812 35.132812 L 21.53125 35.699219 C 21.226562 35.996094 20.710938 36.410156 20.171875 36.410156 Z M 20.171875 36.410156 "/>
<path style=" stroke:none;fill-rule:nonzero;fill:rgb(0%,0%,0%);fill-opacity:1;" d="M 33.796875 36.320312 L 33.515625 35.578125 C 32.828125 36.082031 32.351562 36.292969 31.75 36.292969 C 31.058594 36.292969 30.5625 35.636719 30.5625 34.421875 L 30.5625 25.328125 L 33.539062 25.328125 L 33.539062 24.410156 L 30.539062 24.410156 L 30.539062 20.277344 L 30.152344 20.277344 L 28.101562 22.238281 L 28.101562 24.320312 L 26.71875 24.320312 L 26.3125 25.0625 L 26.3125 25.328125 L 28.082031 25.328125 L 28.082031 34.449219 C 28.082031 37.035156 28.878906 38.519531 30.820312 38.519531 Z M 33.796875 36.320312 "/>
<path style=" stroke:none;fill-rule:nonzero;fill:rgb(0%,0%,0%);fill-opacity:1;" d="M 40.667969 35.875 L 41.25 38.3125 L 44.59375 37.390625 L 44.507812 36.617188 L 43.429688 36.707031 C 43.234375 36.023438 43.105469 35.339844 43.105469 34.273438 L 43.105469 28.121094 C 43.105469 24.734375 42.199219 23.605469 39.351562 23.605469 L 35.144531 26.070312 L 35.144531 28.417969 L 37.386719 28.417969 L 37.796875 25.449219 C 38.292969 25.179688 38.683594 25.0625 39.136719 25.0625 C 40.429688 25.0625 40.582031 26.042969 40.582031 27.765625 L 40.582031 29.667969 L 35.835938 31.777344 C 35.101562 32.667969 34.796875 33.675781 34.796875 34.777344 C 34.796875 37.152344 36.113281 38.519531 37.925781 38.519531 Z M 38.617188 36.410156 C 37.925781 36.410156 37.34375 35.636719 37.34375 34.152344 C 37.34375 33.203125 37.605469 32.398438 38.058594 31.867188 L 40.582031 30.46875 L 40.582031 35.132812 L 39.976562 35.699219 C 39.675781 35.996094 39.15625 36.410156 38.617188 36.410156 Z M 38.617188 36.410156 "/>
<path style=" stroke:none;fill-rule:nonzero;fill:rgb(0%,0%,0%);fill-opacity:1;" d="M 56.171875 38.578125 C 57.746094 37.480469 58.976562 36.023438 59.710938 34.953125 L 61.71875 38.074219 L 63.183594 38.042969 L 65.234375 38.074219 L 65.300781 37.273438 L 64.242188 37.035156 L 61.265625 32.339844 L 63.660156 28.179688 L 65.082031 27.945312 L 65.019531 27.171875 L 63.25 27.230469 L 61.414062 27.171875 L 61.371094 27.945312 L 62.582031 28.152344 L 60.726562 31.539062 L 57.25 26.101562 C 59.367188 24.347656 60.789062 22.894531 60.789062 20.574219 C 60.789062 18.527344 59.386719 16.742188 56.90625 16.742188 C 53.800781 17.902344 52.394531 19.328125 52.394531 21.824219 C 52.394531 23.429688 52.914062 24.378906 54.664062 27.113281 C 52.957031 28.566406 51.273438 30.171875 51.253906 33.351562 C 51.253906 36.5 53.453125 38.578125 56.171875 38.578125 Z M 56.777344 25.359375 C 55.546875 23.339844 54.792969 21.882812 54.792969 20.574219 C 54.792969 18.851562 55.527344 17.871094 56.5625 17.871094 C 57.660156 17.871094 58.351562 19.121094 58.351562 20.8125 C 58.351562 22.535156 58.027344 24.023438 56.777344 25.359375 Z M 56.625 36.054688 C 54.964844 36.054688 53.691406 34.183594 53.691406 31.953125 C 53.691406 30.320312 54.078125 28.984375 55.179688 27.882812 L 59.171875 34.152344 C 58.4375 35.28125 57.683594 36.054688 56.625 36.054688 Z M 56.625 36.054688 "/>
<path style=" stroke:none;fill-rule:nonzero;fill:rgb(0%,0%,0%);fill-opacity:1;" d="M 74.90625 38.042969 L 77.90625 38.105469 L 77.96875 37.273438 L 76.265625 36.976562 L 76.265625 18.347656 L 77.96875 18.050781 L 77.90625 17.25 L 74.90625 17.308594 L 71.886719 17.25 L 71.820312 18.050781 L 73.523438 18.347656 L 73.523438 36.976562 L 71.820312 37.273438 L 71.886719 38.105469 Z M 74.90625 38.042969 "/>
<path style=" stroke:none;fill-rule:nonzero;fill:rgb(0%,0%,0%);fill-opacity:1;" d="M 82.109375 38.042969 L 84.289062 38.105469 L 84.332031 37.300781 L 83.339844 37.035156 L 83.339844 27.707031 L 83.984375 27.140625 C 84.699219 26.519531 85.28125 25.984375 85.992188 25.984375 C 86.8125 25.984375 87.246094 26.578125 87.246094 28.0625 L 87.246094 37.035156 L 86.273438 37.300781 L 86.339844 38.105469 L 88.582031 38.042969 L 91.171875 38.105469 L 91.214844 37.300781 L 89.769531 37.035156 L 89.769531 28.152344 C 89.769531 24.882812 89.230469 23.605469 86.878906 23.605469 L 83.316406 26.695312 L 83.273438 23.875 L 82.582031 23.902344 L 79.433594 24.914062 L 79.496094 25.746094 L 80.855469 25.476562 L 80.855469 37.035156 L 79.542969 37.300781 L 79.585938 38.105469 Z M 82.109375 38.042969 "/>
<path style=" stroke:none;fill-rule:nonzero;fill:rgb(0%,0%,0%);fill-opacity:1;" d="M 95.9375 38.550781 C 98.65625 37.6875 99.910156 36.292969 99.910156 33.976562 C 99.929688 32.339844 99.371094 31.300781 98.054688 30.320312 L 96.285156 28.925781 C 95.140625 28.0625 94.6875 27.5 94.6875 26.488281 C 94.6875 25.449219 95.269531 24.707031 96.21875 24.707031 C 96.910156 24.707031 97.40625 25.003906 97.96875 25.65625 L 98.828125 28.390625 L 99.5625 28.390625 L 99.5625 24.707031 C 98.828125 24.140625 97.835938 23.605469 96.347656 23.605469 C 93.652344 24.527344 92.53125 25.894531 92.53125 27.914062 C 92.53125 29.636719 93.328125 30.648438 94.386719 31.449219 L 96.132812 32.875 C 97.320312 33.796875 97.707031 34.273438 97.707031 35.429688 C 97.707031 36.558594 97.105469 37.363281 96.046875 37.363281 C 95.289062 37.363281 94.644531 36.855469 94.082031 36.171875 L 93.15625 33.351562 L 92.335938 33.351562 L 92.53125 37.300781 C 93.457031 37.984375 94.882812 38.550781 95.9375 38.550781 Z M 95.9375 38.550781 "/>
<path style=" stroke:none;fill-rule:nonzero;fill:rgb(0%,0%,0%);fill-opacity:1;" d="M 105.046875 20.753906 L 105.285156 19.210938 L 105.15625 17.457031 L 104.507812 17.308594 L 102.804688 17.457031 L 102.566406 18.941406 L 102.695312 20.753906 L 103.324219 20.933594 Z M 103.96875 38.042969 L 106.515625 38.105469 L 106.558594 37.300781 L 105.199219 37.035156 L 105.199219 23.875 L 104.464844 23.902344 L 101.316406 24.914062 L 101.378906 25.714844 L 102.738281 25.449219 L 102.738281 37.035156 L 101.402344 37.300781 L 101.464844 38.105469 Z M 103.96875 38.042969 "/>
<path style=" stroke:none;fill-rule:nonzero;fill:rgb(0%,0%,0%);fill-opacity:1;" d="M 112.0625 45.324219 C 115.300781 43.867188 117.675781 41.730469 117.675781 38.875 C 117.675781 37.152344 116.789062 35.816406 115.0625 35.816406 L 110.984375 35.816406 C 110.316406 35.816406 109.863281 35.402344 109.863281 34.449219 L 110.726562 33.144531 C 111.09375 33.292969 111.546875 33.378906 112 33.378906 C 114.933594 32.3125 116.335938 30.765625 116.359375 28.0625 C 116.359375 27.617188 116.292969 27.199219 116.1875 26.84375 L 116.507812 26.519531 L 118.214844 26.519531 L 118.214844 23.605469 L 117.007812 23.605469 L 115.925781 26.101562 C 115.34375 24.617188 114.09375 23.605469 112.367188 23.605469 C 109.453125 24.644531 107.988281 26.191406 107.964844 28.835938 C 107.964844 30.707031 108.828125 32.191406 110.164062 32.90625 L 107.964844 35.042969 L 107.964844 35.519531 C 107.964844 36.914062 108.441406 38.042969 109.90625 38.578125 L 107.425781 40.984375 L 107.425781 41.582031 C 107.425781 44.285156 109.152344 45.324219 112.0625 45.324219 Z M 112.324219 32.3125 C 110.855469 32.3125 110.382812 30.261719 110.382812 28.152344 C 110.382812 25.984375 110.941406 24.675781 112 24.675781 C 113.46875 24.675781 113.941406 26.753906 113.941406 28.925781 C 113.941406 31.035156 113.382812 32.3125 112.324219 32.3125 Z M 112.386719 43.480469 C 110.554688 43.511719 109.582031 42.441406 109.582031 40.984375 C 109.582031 40.390625 109.714844 39.679688 110.46875 38.699219 L 114.136719 38.699219 C 115.34375 38.699219 115.839844 39.320312 115.839844 40.363281 C 115.839844 42.054688 114.4375 43.480469 112.386719 43.480469 Z M 112.386719 43.480469 "/>
<path style=" stroke:none;fill-rule:nonzero;fill:rgb(0%,0%,0%);fill-opacity:1;" d="M 121.617188 38.042969 L 123.796875 38.105469 L 123.859375 37.300781 L 122.84375 37.035156 L 122.84375 27.675781 L 123.492188 27.140625 C 124.25 26.519531 124.875 25.984375 125.542969 25.984375 C 126.320312 25.984375 126.75 26.578125 126.75 28.0625 L 126.75 37.035156 L 125.800781 37.300781 L 125.867188 38.105469 L 128.089844 38.042969 L 130.679688 38.105469 L 130.742188 37.300781 L 129.296875 37.035156 L 129.296875 28.242188 C 129.296875 25.210938 128.84375 23.605469 126.40625 23.605469 L 122.84375 26.667969 L 122.84375 16.890625 L 122.113281 16.921875 L 118.984375 17.84375 L 119.070312 18.644531 L 120.386719 18.464844 L 120.386719 37.035156 L 119.070312 37.300781 L 119.113281 38.105469 Z M 121.617188 38.042969 "/>
<path style=" stroke:none;fill-rule:nonzero;fill:rgb(0%,0%,0%);fill-opacity:1;" d="M 138.410156 36.320312 L 138.128906 35.578125 C 137.441406 36.082031 136.964844 36.292969 136.363281 36.292969 C 135.671875 36.292969 135.175781 35.636719 135.175781 34.421875 L 135.175781 25.328125 L 138.152344 25.328125 L 138.152344 24.410156 L 135.152344 24.410156 L 135.152344 20.277344 L 134.765625 20.277344 L 132.714844 22.238281 L 132.714844 24.320312 L 131.335938 24.320312 L 130.925781 25.0625 L 130.925781 25.328125 L 132.691406 25.328125 L 132.691406 34.449219 C 132.691406 37.035156 133.492188 38.519531 135.433594 38.519531 Z M 138.410156 36.320312 "/>
<path style=" stroke:none;fill-rule:nonzero;fill:rgb(0%,0%,0%);fill-opacity:1;" d="M 143.078125 38.550781 C 145.800781 37.6875 147.050781 36.292969 147.050781 33.976562 C 147.070312 32.339844 146.511719 31.300781 145.195312 30.320312 L 143.425781 28.925781 C 142.28125 28.0625 141.828125 27.5 141.828125 26.488281 C 141.828125 25.449219 142.410156 24.707031 143.359375 24.707031 C 144.050781 24.707031 144.546875 25.003906 145.109375 25.65625 L 145.972656 28.390625 L 146.707031 28.390625 L 146.707031 24.707031 C 145.972656 24.140625 144.980469 23.605469 143.488281 23.605469 C 140.792969 24.527344 139.671875 25.894531 139.671875 27.914062 C 139.671875 29.636719 140.46875 30.648438 141.527344 31.449219 L 143.273438 32.875 C 144.460938 33.796875 144.847656 34.273438 144.847656 35.429688 C 144.847656 36.558594 144.246094 37.363281 143.1875 37.363281 C 142.433594 37.363281 141.785156 36.855469 141.222656 36.171875 L 140.296875 33.351562 L 139.476562 33.351562 L 139.671875 37.300781 C 140.597656 37.984375 142.023438 38.550781 143.078125 38.550781 Z M 143.078125 38.550781 "/>
<path style="fill:none;stroke-width:0.501355;stroke-linecap:butt;stroke-linejoin:miter;stroke:rgb(85.098039%,85.098039%,85.098039%);stroke-opacity:1;stroke-miterlimit:4;" d="M 303.465039 2.025949 L 303.465039 66.509909 " transform="matrix(0.540541,0,0,0.74425,0,0)"/>
<path style=" stroke:none;fill-rule:nonzero;fill:rgb(73.72549%,0.392157%,100%);fill-opacity:1;" d="M 200 22.078125 L 179.667969 10.652344 L 179.667969 18.078125 L 192.945312 25.503906 L 179.667969 32.933594 L 179.667969 40.359375 L 200 28.933594 Z M 200 22.078125 "/>
</g>
</svg>
